<svg width="4" height="12" viewBox="0 0 4 12" xmlns="http://www.w3.org/2000/svg">
<path d="M3.06926 8.94H0.930853C0.785652 8.94 0.660852 8.9928 0.555251 9.0984C0.449651 9.204 0.396851 9.33 0.396851 9.474V11.3448C0.396851 11.49 0.449651 11.6148 0.555251 11.7204C0.660852 11.826 0.786852 11.8788 0.930853 11.8788H3.06926C3.21446 11.8788 3.33926 11.826 3.44487 11.7204C3.55047 11.6148 3.60327 11.4888 3.60327 11.3448V9.474C3.60327 9.3288 3.55047 9.204 3.44487 9.0984C3.33926 8.9928 3.21326 8.94 3.06926 8.94Z"/>
<path d="M3.70767 0.278395C3.60447 0.172795 3.48087 0.119995 3.33567 0.119995H0.663261C0.51806 0.119995 0.394459 0.172795 0.291259 0.278395C0.188059 0.383995 0.140058 0.509995 0.144858 0.653995L0.380059 7.0692C0.386059 7.2144 0.442459 7.3392 0.55166 7.4448C0.65966 7.5504 0.786861 7.6032 0.932062 7.6032H3.07047C3.21567 7.6032 3.34167 7.5504 3.45087 7.4448C3.55887 7.3392 3.61647 7.2132 3.62247 7.0692L3.85647 0.655195C3.86007 0.509995 3.81087 0.383995 3.70767 0.278395Z"/>
</svg>
