<svg width="28" height="33" viewBox="0 0 28 33" xmlns="http://www.w3.org/2000/svg">
<path d="M24 22.6667V14.3333C24 9.21666 21.2667 4.93332 16.5 3.79999V2.66666C16.5 1.28332 15.3834 0.166656 14 0.166656C12.6167 0.166656 11.5 1.28332 11.5 2.66666V3.79999C6.71669 4.93332 4.00002 9.19999 4.00002 14.3333V22.6667L0.666687 26V27.6667H27.3333V26L24 22.6667ZM15.6667 22.6667H12.3334V19.3333H15.6667V22.6667ZM15.6667 16H12.3334V9.33332H15.6667V16ZM14 32.6667C15.8334 32.6667 17.3334 31.1667 17.3334 29.3333H10.6667C10.6667 31.1667 12.15 32.6667 14 32.6667Z"/>
</svg>
