<svg width="12" height="10" viewBox="0 0 12 10" xmlns="http://www.w3.org/2000/svg">
<path d="M10.8012 2.30356C10.8906 2.30356 10.9632 2.26757 10.9632 2.22316C10.9632 2.17876 10.8906 2.14276 10.8012 2.14276C10.7117 2.14276 10.6392 2.17876 10.6392 2.22316C10.6392 2.26757 10.7117 2.30356 10.8012 2.30356Z"/>
<path d="M11.556 0.961975H7.356C7.1784 0.961975 7.0332 1.10718 7.0332 1.28478V2.45358H7.68V1.55718H11.2332V2.52557H8.1852V3.41357H11.2332V3.57557H8.1852V4.38318H11.2332V4.54398H8.1852V8.21238H7.0344V8.71397C7.0344 8.89158 7.1796 9.03678 7.3572 9.03678H11.5572C11.7348 9.03678 11.88 8.89158 11.88 8.71397V1.28478C11.8788 1.10718 11.7336 0.961975 11.556 0.961975ZM9.456 6.90198C9.1884 6.90198 8.9712 6.68598 8.9712 6.41717C8.9712 6.14957 9.1884 5.93238 9.456 5.93238C9.7236 5.93238 9.9408 6.14838 9.9408 6.41717C9.9408 6.68598 9.7236 6.90198 9.456 6.90198Z"/>
<path d="M7.8 2.83759H0.119995V7.82959H7.8V2.83759Z"/>
<path d="M2.80804 8.26996L2.04004 9.03796H5.88004L5.11204 8.26996H2.80804Z"/>
</svg>
