<svg width="10" height="12" viewBox="0 0 10 12" xmlns="http://www.w3.org/2000/svg">
<path d="M3.19508 0.162337C2.62112 0.288337 2.21504 0.705576 2.14784 1.23202C2.07224 1.83958 2.42504 2.3857 3.02708 2.59006L3.16712 2.6377L3.17552 3.65974L3.18116 4.68178L2.48396 5.97826C0.481881 9.70498 0.313881 10.0326 0.249441 10.3547C0.109401 11.0546 0.532281 11.7267 1.19588 11.8527C1.39184 11.8891 8.61045 11.8891 8.80653 11.8527C9.53169 11.7156 9.94341 10.9623 9.71373 10.1894C9.64377 9.95986 9.11733 8.94898 7.30844 5.5861L6.82124 4.68166L6.82688 3.65686L6.83528 2.63206L6.94724 2.59846C7.63892 2.39122 7.99448 1.62118 7.72292 0.910056C7.58012 0.534817 7.23008 0.252097 6.79604 0.159577C6.53552 0.106297 3.44708 0.106297 3.19508 0.162337ZM6.68684 0.543097C7.12364 0.635496 7.4372 0.991057 7.4372 1.3915C7.4372 1.85626 7.0844 2.2147 6.57752 2.26798L6.42908 2.28478V3.53638V4.78798L6.58028 5.06518C6.93032 5.71198 8.63276 8.89846 8.96036 9.5173C9.24033 10.0521 9.32156 10.2341 9.35792 10.3965C9.45033 10.8417 9.28509 11.2197 8.92676 11.3961L8.76716 11.4745H5.0012H1.235L1.0754 11.3961C0.778641 11.2506 0.619041 10.9761 0.621801 10.6205C0.624561 10.2704 0.577041 10.3712 2.57624 6.64438L3.55904 4.8103L3.57308 3.73222L3.58712 2.65414L4.02116 2.64574C4.3712 2.6401 4.46072 2.62894 4.50272 2.59258C4.57832 2.52538 4.56716 2.40214 4.48028 2.33494C4.41032 2.2789 4.36832 2.27614 3.89792 2.27614C3.31268 2.27614 3.13628 2.24254 2.90948 2.0941C2.65748 1.92886 2.53712 1.69654 2.53712 1.38286C2.53712 0.968376 2.84228 0.632377 3.29876 0.542856C3.48908 0.503976 6.51044 0.506737 6.68684 0.543097Z"/>
<path d="M5.63669 3.86687C5.53025 3.98447 5.61149 4.14131 5.76545 4.11887C5.84669 4.10771 5.90273 3.99287 5.86349 3.91727C5.80481 3.80531 5.70953 3.78563 5.63669 3.86687Z"/>
<path d="M4.91995 4.58923C4.63711 4.82719 4.87795 5.28367 5.23639 5.18563C5.38759 5.14363 5.47723 5.01763 5.47723 4.84687C5.47723 4.72363 5.46607 4.69567 5.38207 4.61167C5.29807 4.52767 5.27011 4.51651 5.14687 4.51651C5.03479 4.51639 4.98715 4.53319 4.91995 4.58923Z"/>
<path d="M5.77109 5.58332C5.57225 5.64212 5.40149 5.91656 5.43233 6.1238C5.49677 6.52976 5.97833 6.7034 6.26957 6.4262C6.38441 6.31976 6.42917 6.21896 6.42917 6.0734C6.42917 5.8466 6.33677 5.69816 6.13517 5.60576C6.01481 5.54972 5.90549 5.54408 5.77109 5.58332Z"/>
<path d="M3.79986 5.84924C3.7215 5.95004 3.72426 6.0704 3.81102 6.1544C3.95106 6.2972 4.18902 6.1964 4.18902 5.99204C4.18914 5.79044 3.9231 5.69252 3.79986 5.84924Z"/>
<path d="M2.7331 7.5014C1.20142 10.3771 1.24066 10.2986 1.30222 10.5787C1.34698 10.7746 1.47022 10.9063 1.64938 10.9539C1.83142 10.9987 8.17078 10.9987 8.35282 10.9539C8.63842 10.8811 8.77846 10.5871 8.68882 10.2567C8.64682 10.1055 8.31922 9.46988 7.35874 7.6778L7.00318 7.01696L6.42922 7.00016C5.80198 6.9806 5.42686 6.93572 4.96474 6.821C4.78558 6.779 4.65394 6.75656 4.6399 6.77348C4.62874 6.78752 4.26754 7.54904 3.8419 8.46476C3.4135 9.38036 3.03826 10.1588 3.00742 10.1952C2.77222 10.4444 2.32426 10.1895 2.41942 9.85916C2.43622 9.80876 2.78338 9.05 3.19222 8.17352C3.60382 7.29704 3.93142 6.57464 3.92302 6.56624C3.91738 6.55784 3.76342 6.54668 3.58138 6.54104L3.25102 6.527L2.7331 7.5014Z"/>
</svg>
