<svg width="24" height="24" viewBox="0 0 24 24" xmlns="http://www.w3.org/2000/svg">
<g>
<path d="M9.92082 24L6.88163 20.9584L7.17306 20.5959C8.03755 19.5208 7.95918 17.978 6.99184 17.0082C6.05143 16.0678 4.44245 15.9894 3.40408 16.8245L3.04163 17.1184L0 14.0767L14.0767 0L17.1184 3.04163L16.822 3.40408C15.9429 4.48163 16.0139 6.02939 16.991 7.00653C17.9363 7.95184 19.5576 8.02286 20.5935 7.17551L20.9559 6.87673L24 9.92327L9.92082 24ZM8.25306 20.8629L9.92327 22.5331L22.5355 9.92327L20.8653 8.25551C19.4351 9.14694 17.4539 8.93878 16.2563 7.74122C15.0147 6.49714 14.8237 4.58939 15.742 3.13224L14.0767 1.46694L1.46694 14.0767L3.13714 15.7469C4.5649 14.8678 6.53388 15.0833 7.72408 16.2759C8.95592 17.5078 9.15184 19.4082 8.25306 20.8629Z"/>
<path d="M8.88489 12.791L8.15265 12.0563L12.1861 8.02286L12.9208 8.7551L8.88489 12.791Z"/>
<path d="M11.9412 15.8473L11.2065 15.1151L15.2424 11.0816L15.9771 11.8139L11.9412 15.8473Z"/>
</g>
</svg>
